<svg width="24" height="24" viewBox="0 0 24 24" fill="none" xmlns="http://www.w3.org/2000/svg">
<path d="M8.57143 20.5455C8.57143 22.4541 6.65143 24 4.28571 24C1.92 24 0 22.4541 0 20.5455C0 18.6387 1.92 17.0911 4.28571 17.0911C6.65143 17.0911 8.57143 18.6387 8.57143 20.5455ZM24 17.0911C24 18.9997 22.08 20.5455 19.7143 20.5455C17.3486 20.5455 15.4286 18.9997 15.4286 17.0911C15.4286 15.1825 17.3486 13.6366 19.7143 13.6366C22.08 13.6366 24 15.1825 24 17.0911Z" fill="#BDBDBD"/>
<path fill-rule="evenodd" clip-rule="evenodd" d="M22.2857 17.091V1.5459H24V17.091H22.2857ZM8.5714 3.27314V20.5455H6.85712V3.27314H8.5714Z" fill="#BDBDBD"/>
<path d="M6.85715 3.10905C6.85714 2.68086 7.01499 2.26793 7.30008 1.95037C7.58516 1.63281 7.97715 1.43327 8.4 1.39045L22.1143 0.00865807C22.3527 -0.0154812 22.5934 0.0109922 22.821 0.0863708C23.0486 0.161749 23.258 0.284359 23.4357 0.446292C23.6134 0.608224 23.7554 0.805883 23.8526 1.02652C23.9498 1.24715 24 1.48587 24 1.72726V3.27314L6.85715 5.00038V3.10905Z" fill="#BDBDBD"/>
</svg>
